<svg xmlns="http://www.w3.org/2000/svg" width="163.54" height="163.55" viewBox="0 0 163.54 163.55">
  <defs>
    <style>
      .a {
        fill: #fff;
      }
    </style>
  </defs>
  <title>fb-logo</title>
  <path class="a" d="M113.29,163.52V100.44h21.16l3.24-24.95c-1.15-.12-2.13-0.29-3.1-0.3-6.31,0-12.63-.08-18.94,0-2,0-2.59-.62-2.51-2.57,0.22-5.59,0-11.21.49-16.76,0.45-4.83,3.47-7.35,8.41-7.61,4.64-.24,9.31-0.22,14-0.16,2,0,2.62-.65,2.59-2.6-0.09-6,0-12,0-18,0-1.09.13-2.21-1.55-2.35-9.27-.77-18.59-2-27.75.35C97.05,28.64,89.75,36.77,88,49.06c-1.09,7.43-.69,15.09-0.89,22.64-0.09,3.47,0,3.48-3.53,3.48-5.13,0-10.26.06-15.39,0-1.94,0-2.61.63-2.58,2.6,0.1,6.79.08,13.57,0,20.36,0,1.73.5,2.34,2.29,2.31,5.6-.1,11.21,0,16.81-0.07,1.66,0,2.41.32,2.4,2.18Q87,132,87.06,161.48c0,1.48-.43,2.07-2,2.07-25.41,0-50.82,0-76.23-.06A8.81,8.81,0,0,1,0,154.73c-0.07-2.6,0-5.21,0-7.81q0-68.3,0-136.6C0,3.5,3.52,0,10.35,0h143c6.67,0,10.2,3.53,10.2,10.21q0,71.61,0,143.23c0,6.49-3.59,10.08-10.09,10.08H113.29Z"/>
</svg>
